<svg width="163" height="36" viewBox="0 0 163 36" fill="none" xmlns="http://www.w3.org/2000/svg">
<path d="M12 0L22.3923 18H1.6077L12 0Z" fill="#816FEF"/>
<path d="M12 36L1.6077 18L22.3923 18L12 36Z" fill="#816FEF"/>
<path d="M35.88 8.528L39.672 19.928C39.8 20.328 39.92 20.72 40.032 21.104C40.144 21.472 40.264 21.88 40.392 22.328C40.52 21.912 40.632 21.536 40.728 21.2C40.824 20.848 40.936 20.488 41.064 20.12L45.048 8.504H46.968L40.92 26.072H39.528L33.504 8.528H35.88ZM52.0191 13.784C53.4591 13.784 54.5471 14.216 55.2831 15.08C56.0351 15.928 56.4111 17.048 56.4111 18.44C56.4111 18.664 56.3951 18.896 56.3631 19.136C56.3471 19.36 56.3231 19.6 56.2911 19.856H48.7071C48.7071 21.376 49.0431 22.552 49.7151 23.384C50.3871 24.216 51.2831 24.632 52.4031 24.632C53.3151 24.632 54.3231 24.344 55.4271 23.768L56.1711 24.968C55.6111 25.416 54.9791 25.752 54.2751 25.976C53.5711 26.2 52.8591 26.312 52.1391 26.312C50.8911 26.312 49.8511 26.016 49.0191 25.424C48.2031 24.832 47.5951 24.064 47.1951 23.12C46.7951 22.176 46.5951 21.192 46.5951 20.168C46.5951 19.368 46.7071 18.592 46.9311 17.84C47.1551 17.088 47.4911 16.408 47.9391 15.8C48.4031 15.176 48.9711 14.688 49.6431 14.336C50.3151 13.968 51.1071 13.784 52.0191 13.784ZM51.8271 15.296C51.2831 15.296 50.8031 15.448 50.3871 15.752C49.9711 16.056 49.6351 16.448 49.3791 16.928C49.1231 17.392 48.9471 17.872 48.8511 18.368H54.3231C54.3551 17.376 54.1471 16.616 53.6991 16.088C53.2511 15.56 52.6271 15.296 51.8271 15.296ZM60.7104 13.88C60.8224 14.152 60.9184 14.432 60.9984 14.72C61.0784 15.008 61.1344 15.296 61.1664 15.584C61.6464 15.104 62.2144 14.688 62.8704 14.336C63.5264 13.968 64.1984 13.784 64.8864 13.784C66.2144 13.784 67.1504 14.184 67.6944 14.984C68.2544 15.784 68.5344 16.8 68.5344 18.032V26H66.5664V18.68C66.5664 18.184 66.5264 17.696 66.4464 17.216C66.3824 16.736 66.2064 16.344 65.9184 16.04C65.6464 15.72 65.1904 15.56 64.5504 15.56C63.9584 15.56 63.3664 15.728 62.7744 16.064C62.1984 16.384 61.7024 16.744 61.2864 17.144V26H59.3184V17.552C59.3184 17.232 59.2944 16.864 59.2464 16.448C59.1984 16.016 59.1184 15.6 59.0064 15.2C58.8944 14.784 58.7344 14.44 58.5264 14.168L60.7104 13.88ZM75.2514 10.664C75.1394 11.208 75.0354 11.776 74.9394 12.368C74.8594 12.944 74.8034 13.512 74.7714 14.072H77.8914L77.4834 15.584H74.7714V23.216C74.7714 23.68 74.8514 24.048 75.0114 24.32C75.1874 24.592 75.5314 24.728 76.0434 24.728C76.2994 24.728 76.5554 24.704 76.8114 24.656C77.0674 24.608 77.3154 24.552 77.5554 24.488L77.8914 25.832C77.4914 25.944 77.1074 26.04 76.7394 26.12C76.3874 26.216 75.9794 26.264 75.5154 26.264C74.4914 26.264 73.7794 25.992 73.3794 25.448C72.9794 24.904 72.7794 24.144 72.7794 23.168V15.584H71.0034V14.384C71.6434 14.368 72.1474 14.16 72.5154 13.76C72.8834 13.344 73.1634 12.848 73.3554 12.272C73.5474 11.696 73.6914 11.16 73.7874 10.664H75.2514ZM82.287 14.072V21.416C82.287 21.88 82.327 22.36 82.407 22.856C82.487 23.336 82.663 23.736 82.935 24.056C83.223 24.376 83.671 24.536 84.279 24.536C84.871 24.536 85.407 24.408 85.887 24.152C86.383 23.896 86.783 23.544 87.087 23.096C87.391 22.632 87.543 22.096 87.543 21.488V15.488C87.543 15.472 87.519 15.36 87.471 15.152C87.423 14.928 87.375 14.704 87.327 14.48C87.279 14.24 87.247 14.104 87.231 14.072H89.535V23.672C89.535 24.264 89.751 24.56 90.183 24.56C90.407 24.56 90.711 24.488 91.095 24.344L91.527 25.64C90.839 26.024 90.111 26.216 89.343 26.216C88.927 26.216 88.559 26.096 88.239 25.856C87.919 25.616 87.711 25.192 87.615 24.584C87.151 25.064 86.591 25.472 85.935 25.808C85.295 26.144 84.631 26.312 83.943 26.312C82.631 26.312 81.695 25.912 81.135 25.112C80.575 24.312 80.295 23.296 80.295 22.064V15.488L79.983 14.072H82.287ZM94.9766 13.856C95.2646 14.56 95.4486 15.304 95.5286 16.088C95.9446 15.432 96.5046 14.896 97.2086 14.48C97.9126 14.064 98.6566 13.856 99.4406 13.856L98.9606 15.968C98.1926 15.968 97.5366 16.168 96.9926 16.568C96.4646 16.968 95.9926 17.472 95.5766 18.08V26H93.5846V17.36C93.5846 16.896 93.5206 16.344 93.3926 15.704C93.2806 15.048 93.0886 14.52 92.8166 14.12L94.9766 13.856ZM106.488 13.784C107.928 13.784 109.016 14.216 109.752 15.08C110.504 15.928 110.88 17.048 110.88 18.44C110.88 18.664 110.864 18.896 110.832 19.136C110.816 19.36 110.792 19.6 110.76 19.856H103.176C103.176 21.376 103.512 22.552 104.184 23.384C104.856 24.216 105.752 24.632 106.872 24.632C107.784 24.632 108.792 24.344 109.896 23.768L110.64 24.968C110.08 25.416 109.448 25.752 108.744 25.976C108.04 26.2 107.328 26.312 106.608 26.312C105.36 26.312 104.32 26.016 103.488 25.424C102.672 24.832 102.064 24.064 101.664 23.12C101.264 22.176 101.064 21.192 101.064 20.168C101.064 19.368 101.176 18.592 101.4 17.84C101.624 17.088 101.96 16.408 102.408 15.8C102.872 15.176 103.44 14.688 104.112 14.336C104.784 13.968 105.576 13.784 106.488 13.784ZM106.296 15.296C105.752 15.296 105.272 15.448 104.856 15.752C104.44 16.056 104.104 16.448 103.848 16.928C103.592 17.392 103.416 17.872 103.32 18.368H108.792C108.824 17.376 108.616 16.616 108.168 16.088C107.72 15.56 107.096 15.296 106.296 15.296Z" fill="white"/>
<path d="M113.595 8.528H123.267V10.184H116.163V16.208H121.803V17.84H116.163V26H113.931V10.112L113.595 8.528ZM126.701 14.072V21.416C126.701 21.88 126.741 22.36 126.821 22.856C126.901 23.336 127.077 23.736 127.349 24.056C127.637 24.376 128.085 24.536 128.693 24.536C129.285 24.536 129.821 24.408 130.301 24.152C130.797 23.896 131.197 23.544 131.501 23.096C131.805 22.632 131.957 22.096 131.957 21.488V15.488C131.957 15.472 131.933 15.36 131.885 15.152C131.837 14.928 131.789 14.704 131.741 14.48C131.693 14.24 131.661 14.104 131.645 14.072H133.949V23.672C133.949 24.264 134.165 24.56 134.597 24.56C134.821 24.56 135.125 24.488 135.509 24.344L135.941 25.64C135.253 26.024 134.525 26.216 133.757 26.216C133.341 26.216 132.973 26.096 132.653 25.856C132.333 25.616 132.125 25.192 132.029 24.584C131.565 25.064 131.005 25.472 130.349 25.808C129.709 26.144 129.045 26.312 128.357 26.312C127.045 26.312 126.109 25.912 125.549 25.112C124.989 24.312 124.709 23.296 124.709 22.064V15.488L124.397 14.072H126.701ZM139.367 13.88C139.479 14.152 139.575 14.432 139.655 14.72C139.735 15.008 139.791 15.296 139.823 15.584C140.303 15.104 140.871 14.688 141.527 14.336C142.183 13.968 142.855 13.784 143.543 13.784C144.871 13.784 145.807 14.184 146.351 14.984C146.911 15.784 147.191 16.8 147.191 18.032V26H145.223V18.68C145.223 18.184 145.183 17.696 145.103 17.216C145.039 16.736 144.863 16.344 144.575 16.04C144.303 15.72 143.847 15.56 143.207 15.56C142.615 15.56 142.023 15.728 141.431 16.064C140.855 16.384 140.359 16.744 139.943 17.144V26H137.975V17.552C137.975 17.232 137.951 16.864 137.903 16.448C137.855 16.016 137.775 15.6 137.663 15.2C137.551 14.784 137.391 14.44 137.183 14.168L139.367 13.88ZM155.588 13.808C156.132 13.808 156.676 13.896 157.22 14.072C157.764 14.248 158.236 14.52 158.636 14.888C158.62 14.664 158.604 14.448 158.588 14.24C158.588 14.016 158.588 13.8 158.588 13.592V9.128L158.252 7.712H160.556V22.568C160.556 23.064 160.612 23.64 160.724 24.296C160.852 24.952 161.044 25.504 161.3 25.952L159.188 26.216C159.076 25.944 158.98 25.672 158.9 25.4C158.82 25.128 158.764 24.856 158.732 24.584C158.316 25.128 157.796 25.552 157.172 25.856C156.548 26.16 155.892 26.312 155.204 26.312C154.372 26.312 153.644 26.136 153.02 25.784C152.396 25.432 151.876 24.96 151.46 24.368C151.06 23.76 150.756 23.096 150.548 22.376C150.356 21.64 150.26 20.896 150.26 20.144C150.26 19.056 150.452 18.032 150.836 17.072C151.236 16.096 151.828 15.312 152.612 14.72C153.396 14.112 154.388 13.808 155.588 13.808ZM155.636 15.44C154.804 15.44 154.148 15.672 153.668 16.136C153.188 16.6 152.852 17.184 152.66 17.888C152.468 18.592 152.372 19.296 152.372 20C152.372 20.72 152.476 21.432 152.684 22.136C152.908 22.84 153.268 23.424 153.764 23.888C154.276 24.336 154.956 24.56 155.804 24.56C156.364 24.56 156.876 24.4 157.34 24.08C157.82 23.744 158.236 23.376 158.588 22.976V18.944C158.588 18.304 158.484 17.72 158.276 17.192C158.084 16.664 157.772 16.24 157.34 15.92C156.908 15.6 156.34 15.44 155.636 15.44Z" fill="#816FEF"/>
</svg>
